<?xml version="1.0" standalone="no"?>
<!DOCTYPE svg PUBLIC "-//W3C//DTD SVG 20010904//EN"
 "http://www.w3.org/TR/2001/REC-SVG-20010904/DTD/svg10.dtd">
<svg version="1.0" xmlns="http://www.w3.org/2000/svg"
 width="512.000000pt" height="512.000000pt" viewBox="0 0 512.000000 512.000000"
 preserveAspectRatio="xMidYMid meet">

<g transform="translate(0.000000,512.000000) scale(0.100000,-0.100000)"
fill="#000000" stroke="none">
<path d="M1985 4334 c-475 -36 -879 -206 -1033 -434 -196 -291 -490 -1160
-602 -1780 -65 -365 -67 -649 -4 -748 70 -111 509 -374 807 -486 201 -75 276
-91 442 -91 137 0 155 2 203 24 28 13 65 39 82 57 104 119 -18 300 -169 250
-82 -27 -125 -29 -210 -12 -230 47 -602 223 -835 395 l-59 44 6 121 c22 466
338 1610 541 1957 127 216 405 343 832 379 153 13 161 15 198 49 57 52 69 117
35 187 -35 74 -100 98 -234 88z"/>
<path d="M2999 4330 c-76 -23 -125 -93 -116 -168 5 -50 29 -87 76 -119 24 -16
52 -23 119 -27 129 -9 325 -41 427 -71 50 -14 136 -48 193 -76 84 -40 117 -64
176 -122 63 -63 81 -88 133 -197 209 -431 480 -1447 500 -1875 l6 -120 -54
-42 c-213 -164 -609 -352 -840 -399 -85 -17 -128 -15 -210 12 -151 50 -273
-131 -169 -250 17 -18 54 -44 82 -57 48 -22 66 -24 203 -24 132 0 162 4 247
27 215 60 441 160 666 297 197 119 316 211 345 267 36 71 48 268 26 462 -68
620 -395 1671 -633 2036 -112 173 -334 305 -649 385 -175 45 -469 79 -528 61z"/>
<path d="M2355 3884 c-16 -3 -79 -11 -140 -20 -283 -40 -615 -143 -874 -273
-141 -71 -179 -98 -202 -142 -54 -106 23 -229 142 -229 31 0 63 10 109 35 293
159 595 256 923 300 136 17 413 20 537 5 292 -37 577 -131 812 -268 107 -63
116 -66 178 -66 77 -1 109 17 140 80 46 93 16 161 -102 234 -175 108 -428 216
-631 270 -225 60 -319 71 -602 75 -143 2 -273 1 -290 -1z"/>
<path d="M1861 2689 c-92 -18 -182 -95 -229 -198 -23 -48 -27 -69 -27 -151 1
-116 25 -185 89 -257 66 -74 123 -98 226 -98 71 0 93 4 134 25 101 51 171 164
183 295 21 230 -169 425 -376 384z"/>
<path d="M3141 2689 c-92 -18 -182 -95 -229 -198 -23 -48 -27 -69 -27 -151 1
-116 25 -185 89 -257 66 -74 123 -98 226 -98 71 0 93 4 134 25 101 51 171 164
183 295 21 230 -169 425 -376 384z"/>
<path d="M1049 1917 c-52 -27 -89 -85 -89 -138 0 -55 36 -182 72 -254 41 -83
127 -188 172 -209 70 -33 170 -12 203 44 l16 27 105 -49 c192 -90 388 -150
618 -190 176 -30 627 -33 799 -5 235 39 455 105 647 195 l105 49 16 -27 c33
-56 133 -77 203 -44 45 21 131 126 172 209 34 68 72 198 72 246 0 99 -94 180
-188 163 -18 -4 -81 -41 -140 -85 -272 -199 -578 -328 -912 -384 -130 -22
-427 -30 -573 -16 -393 38 -758 179 -1063 408 -118 88 -161 99 -235 60z"/>
</g>
</svg>
