<?xml version="1.0" standalone="no"?>
<!DOCTYPE svg PUBLIC "-//W3C//DTD SVG 20010904//EN"
 "http://www.w3.org/TR/2001/REC-SVG-20010904/DTD/svg10.dtd">
<svg version="1.0" xmlns="http://www.w3.org/2000/svg"
 width="256.000000pt" height="256.000000pt" viewBox="0 0 256.000000 256.000000"
 preserveAspectRatio="xMidYMid meet">

<g transform="translate(0.000000,256.000000) scale(0.100000,-0.100000)"
fill="#000000" stroke="none">
<path d="M92 2143 c-18 -9 -45 -32 -60 -51 l-27 -35 0 -777 0 -777 27 -35 c56
-73 -34 -68 1248 -68 1282 0 1192 -5 1248 68 l27 35 0 777 0 777 -27 35 c-56
73 35 68 -1250 68 -1047 0 -1156 -2 -1186 -17z m2308 -236 l0 -93 -560 -224
-560 -224 -560 224 -560 224 0 93 0 93 1120 0 1120 0 0 -93z m-1685 -487 c302
-121 557 -220 565 -220 8 0 263 99 565 220 302 121 551 220 552 220 2 0 3
-243 3 -540 l0 -540 -1120 0 -1120 0 0 540 c0 297 1 540 3 540 1 0 250 -99
552 -220z"/>
</g>
</svg>
