<?xml version="1.0" standalone="no"?>
<!DOCTYPE svg PUBLIC "-//W3C//DTD SVG 20010904//EN"
 "http://www.w3.org/TR/2001/REC-SVG-20010904/DTD/svg10.dtd">
<svg version="1.0" xmlns="http://www.w3.org/2000/svg"
 width="128.000000pt" height="128.000000pt" viewBox="0 0 128.000000 128.000000"
 preserveAspectRatio="xMidYMid meet">

<g transform="translate(0.000000,128.000000) scale(0.100000,-0.100000)"
fill="#000000" stroke="none">
<path d="M612 1268 c-5 -7 -49 -96 -96 -197 -48 -102 -88 -186 -89 -188 -2 -1
-92 -16 -202 -33 -109 -17 -205 -36 -212 -42 -7 -6 -13 -17 -13 -25 0 -8 67
-85 149 -170 82 -86 148 -161 146 -167 -2 -6 -18 -102 -36 -213 -26 -164 -29
-206 -19 -218 7 -8 19 -15 26 -15 8 0 95 45 194 100 l180 100 180 -100 c100
-55 187 -100 194 -100 8 0 19 7 26 15 10 12 7 54 -19 218 -18 111 -34 207 -36
214 -2 6 64 81 146 166 82 85 149 162 149 170 0 28 -29 37 -226 68 -109 17
-200 32 -201 33 -1 1 -41 85 -89 187 -95 203 -99 209 -124 209 -10 0 -22 -6
-28 -12z m107 -289 c51 -109 82 -164 95 -170 12 -4 91 -18 176 -30 85 -12 157
-24 159 -26 3 -2 -52 -61 -122 -132 -70 -70 -127 -134 -127 -142 0 -8 13 -90
29 -184 15 -93 27 -172 25 -173 -1 -2 -68 33 -147 77 -80 45 -154 81 -166 81
-11 0 -86 -36 -166 -81 -81 -44 -148 -79 -149 -77 -2 1 10 80 25 173 16 94 29
176 29 184 0 8 -57 72 -127 142 -70 71 -125 130 -122 132 2 2 74 14 159 26 85
12 164 26 176 30 13 6 44 61 95 170 40 88 76 160 79 160 3 0 39 -72 79 -160z"/>
</g>
</svg>
