<?xml version="1.0" standalone="no"?>
<!DOCTYPE svg PUBLIC "-//W3C//DTD SVG 20010904//EN"
 "http://www.w3.org/TR/2001/REC-SVG-20010904/DTD/svg10.dtd">
<svg version="1.0" xmlns="http://www.w3.org/2000/svg"
 width="128.000000pt" height="128.000000pt" viewBox="0 0 128.000000 128.000000"
 preserveAspectRatio="xMidYMid meet">

<g transform="translate(0.000000,128.000000) scale(0.100000,-0.100000)"
fill="#000000" stroke="none">
<path d="M612 1268 c-5 -7 -49 -96 -96 -197 -48 -102 -88 -186 -89 -188 -2 -1
-92 -16 -202 -33 -109 -17 -205 -36 -212 -42 -7 -6 -13 -17 -13 -25 0 -8 67
-85 149 -170 82 -86 148 -161 146 -167 -2 -6 -18 -102 -36 -213 -26 -164 -29
-206 -19 -218 7 -8 19 -15 26 -15 8 0 95 45 194 100 l180 100 180 -100 c100
-55 187 -100 194 -100 8 0 19 7 26 15 10 12 7 54 -19 218 -18 111 -34 207 -36
213 -2 6 64 81 146 167 82 85 149 162 149 170 0 28 -29 37 -226 68 -109 17
-200 32 -201 33 -1 1 -41 85 -89 187 -95 203 -99 209 -124 209 -10 0 -22 -6
-28 -12z"/>
</g>
</svg>
