<?xml version="1.0" standalone="no"?>
<!DOCTYPE svg PUBLIC "-//W3C//DTD SVG 20010904//EN"
 "http://www.w3.org/TR/2001/REC-SVG-20010904/DTD/svg10.dtd">
<svg version="1.0" xmlns="http://www.w3.org/2000/svg"
 width="256.000000pt" height="256.000000pt" viewBox="0 0 256.000000 256.000000"
 preserveAspectRatio="xMidYMid meet">

<g transform="translate(0.000000,256.000000) scale(0.100000,-0.100000)"
fill="#000000" stroke="none">
<path d="M1155 2504 c-683 -74 -1147 -586 -1148 -1264 -1 -423 191 -788 533
-1015 98 -66 256 -142 338 -164 55 -15 109 -1 147 39 29 31 30 34 33 151 5
183 -10 204 -132 186 -83 -13 -163 1 -210 37 -17 13 -45 48 -61 77 l-29 54 39
-34 c21 -19 59 -43 84 -55 91 -41 290 -18 325 37 8 12 17 40 21 61 4 22 15 51
26 64 47 60 8 125 -82 137 -303 39 -438 187 -441 480 -1 116 12 155 79 254 24
35 43 67 43 71 0 5 -7 36 -16 70 -15 59 -12 154 4 164 13 8 97 -27 175 -72
l79 -46 88 17 c143 28 260 31 380 12 58 -10 120 -20 138 -22 25 -4 47 4 101
37 72 43 170 85 179 76 12 -13 14 -114 2 -177 l-13 -69 32 -43 c62 -81 85
-143 89 -242 9 -211 -65 -373 -201 -440 -29 -14 -104 -38 -167 -53 -133 -33
-158 -44 -170 -78 -11 -29 -5 -48 31 -94 40 -50 50 -125 42 -300 -7 -177 2
-225 54 -270 58 -52 148 -38 328 50 177 86 352 232 458 381 85 120 158 288
196 449 18 81 32 263 26 340 -29 345 -147 614 -364 831 -179 179 -382 286
-642 339 -98 20 -310 33 -394 24z m253 -164 c543 -59 926 -450 982 -1003 48
-473 -212 -902 -659 -1087 -41 -16 -76 -30 -79 -30 -3 0 -2 66 1 147 4 88 3
172 -3 208 -18 103 -20 97 32 110 187 49 340 191 405 375 21 59 27 99 31 190
5 139 -12 221 -65 322 -35 68 -36 72 -38 191 -2 138 -14 188 -55 229 -23 23
-37 28 -77 28 -69 0 -146 -23 -239 -71 l-81 -41 -74 13 c-98 17 -314 17 -417
0 l-82 -13 -68 35 c-135 71 -269 97 -319 62 -44 -31 -82 -216 -64 -309 8 -45
7 -52 -20 -94 -122 -192 -108 -499 31 -703 22 -32 38 -59 36 -59 -2 0 -23 7
-46 15 -84 30 -184 13 -210 -34 -5 -11 -10 -35 -10 -53 0 -27 12 -45 65 -101
45 -46 78 -92 105 -148 22 -45 40 -85 40 -88 0 -11 -103 95 -145 150 -286 368
-293 911 -16 1312 61 88 181 207 270 267 213 143 494 209 769 180z m-549
-1650 c86 -27 91 -40 15 -40 -42 0 -80 19 -114 56 -22 24 -22 26 -5 19 11 -4
58 -20 104 -35z m7 -420 c29 0 34 -3 34 -25 0 -24 0 -24 -39 -10 -22 7 -52 21
-68 30 l-28 16 34 -5 c18 -4 49 -6 67 -6z"/>
</g>
</svg>
