<?xml version="1.0" standalone="no"?>
<!DOCTYPE svg PUBLIC "-//W3C//DTD SVG 20010904//EN"
 "http://www.w3.org/TR/2001/REC-SVG-20010904/DTD/svg10.dtd">
<svg version="1.0" xmlns="http://www.w3.org/2000/svg"
 width="128.000000pt" height="128.000000pt" viewBox="0 0 128.000000 128.000000"
 preserveAspectRatio="xMidYMid meet">

<g transform="translate(0.000000,128.000000) scale(0.100000,-0.100000)"
fill="#000000" stroke="none">
<path d="M613 1269 c-4 -7 -51 -98 -103 -203 l-95 -191 -195 -30 c-107 -16
-201 -34 -208 -38 -27 -18 -6 -49 133 -194 l145 -151 -33 -207 c-32 -196 -33
-208 -17 -228 l17 -21 59 31 c32 17 115 63 184 101 l125 70 52 -30 c43 -24 56
-27 73 -18 38 20 25 56 -30 87 l-50 28 0 416 c0 377 2 417 16 415 43 -3 40 67
-6 142 -20 32 -52 42 -67 21z"/>
<path d="M752 968 c-18 -18 -15 -32 18 -98 33 -65 40 -69 129 -73 41 -2 56 2
65 16 18 28 -5 51 -60 61 -46 7 -52 12 -74 55 -26 48 -55 62 -78 39z"/>
<path d="M1106 818 c-18 -26 -5 -58 24 -58 22 0 26 -10 9 -27 -19 -19 -6 -58
20 -61 17 -3 36 9 72 44 73 72 66 94 -35 113 -76 14 -72 15 -90 -11z"/>
<path d="M945 539 c-46 -50 -47 -50 -40 -102 9 -69 25 -101 52 -105 31 -5 44
26 35 79 -8 41 -6 47 25 82 47 53 42 97 -11 97 -7 0 -35 -23 -61 -51z"/>
<path d="M969 169 c-11 -11 -18 -26 -16 -34 4 -9 -4 -12 -25 -11 -36 1 -59
-25 -43 -50 6 -8 36 -30 68 -47 70 -39 92 -32 91 29 -2 108 -33 155 -75 113z"/>
</g>
</svg>
