<?xml version="1.0" standalone="no"?>
<!DOCTYPE svg PUBLIC "-//W3C//DTD SVG 20010904//EN"
 "http://www.w3.org/TR/2001/REC-SVG-20010904/DTD/svg10.dtd">
<svg version="1.0" xmlns="http://www.w3.org/2000/svg"
 width="256.000000pt" height="256.000000pt" viewBox="0 0 256.000000 256.000000"
 preserveAspectRatio="xMidYMid meet">

<g transform="translate(0.000000,256.000000) scale(0.100000,-0.100000)"
fill="#000000" stroke="none">
<path d="M249 2542 c-156 -52 -242 -178 -242 -352 0 -119 27 -186 107 -266 78
-78 134 -99 261 -99 76 0 99 5 146 27 79 36 133 89 171 166 31 62 33 73 33
172 0 94 -3 111 -28 166 -57 123 -166 193 -310 200 -62 3 -96 0 -138 -14z
m199 -157 c79 -34 122 -101 122 -192 -1 -166 -151 -261 -296 -188 -109 55
-144 189 -79 302 48 81 161 116 253 78z"/>
<path d="M1713 1781 c-72 -20 -136 -48 -185 -82 -36 -26 -45 -24 -51 10 -11
54 -28 56 -365 53 l-213 -2 -26 -26 -26 -26 5 -319 c3 -175 2 -524 -2 -774 -5
-251 -5 -483 0 -516 15 -104 0 -99 322 -99 170 0 287 4 298 10 37 20 41 74 35
423 -8 415 2 596 39 671 35 71 80 96 172 96 88 0 127 -22 156 -88 29 -66 41
-321 32 -714 -7 -322 -2 -367 36 -388 11 -6 131 -10 295 -10 l276 0 24 25 25
24 0 494 c0 272 -5 541 -10 598 -36 357 -159 546 -404 625 -113 37 -326 44
-433 15z m340 -156 c120 -25 216 -95 266 -193 30 -58 59 -173 71 -277 5 -49
10 -294 10 -542 l0 -453 -170 0 -170 0 6 338 c10 510 -12 669 -108 777 -53 61
-99 78 -218 83 -137 5 -201 -16 -275 -92 -108 -110 -128 -229 -123 -738 l4
-368 -168 0 -168 0 0 720 0 720 160 0 160 0 0 -83 c0 -74 3 -86 23 -104 52
-47 99 -35 146 37 101 156 319 225 554 175z"/>
<path d="M314 1763 c-275 -4 -264 1 -274 -121 -3 -42 -3 -259 2 -482 4 -223 5
-563 1 -756 l-6 -352 26 -26 26 -26 276 0 c168 0 284 4 295 10 11 6 24 27 29
48 6 23 8 338 6 852 l-5 815 -21 18 c-12 9 -35 17 -53 17 -17 0 -40 2 -51 3
-11 2 -124 1 -251 0z m226 -883 l0 -720 -170 0 -170 0 0 720 0 720 170 0 170
0 0 -720z"/>
</g>
</svg>
