<?xml version="1.0" standalone="no"?>
<!DOCTYPE svg PUBLIC "-//W3C//DTD SVG 20010904//EN"
 "http://www.w3.org/TR/2001/REC-SVG-20010904/DTD/svg10.dtd">
<svg version="1.0" xmlns="http://www.w3.org/2000/svg"
 width="256.000000pt" height="256.000000pt" viewBox="0 0 256.000000 256.000000"
 preserveAspectRatio="xMidYMid meet">

<g transform="translate(0.000000,256.000000) scale(0.100000,-0.100000)"
fill="#000000" stroke="none">
<path d="M1090 2539 c-188 -40 -349 -126 -486 -263 -139 -140 -224 -298 -264
-496 -62 -301 43 -642 334 -1080 125 -189 343 -460 504 -627 95 -99 109 -99
204 0 161 167 379 438 504 627 291 438 396 779 334 1080 -25 123 -75 247 -138
345 -59 90 -187 218 -277 277 -211 136 -475 187 -715 137z m415 -173 c373
-110 620 -488 566 -867 -38 -265 -227 -620 -534 -1004 -92 -115 -249 -295
-257 -295 -8 0 -165 180 -257 295 -307 384 -496 739 -534 1004 -44 311 110
622 394 793 175 106 415 134 622 74z"/>
<path d="M1173 2065 c-238 -52 -403 -296 -364 -538 42 -259 288 -439 544 -398
259 42 439 288 398 544 -16 101 -62 189 -135 262 -73 73 -142 111 -233 130
-82 18 -129 18 -210 0z m239 -177 c199 -92 248 -358 93 -513 -122 -121 -328
-121 -450 0 -78 78 -111 204 -82 306 57 194 259 289 439 207z"/>
</g>
</svg>
