<?xml version="1.0" standalone="no"?>
<!DOCTYPE svg PUBLIC "-//W3C//DTD SVG 20010904//EN"
 "http://www.w3.org/TR/2001/REC-SVG-20010904/DTD/svg10.dtd">
<svg version="1.0" xmlns="http://www.w3.org/2000/svg"
 width="256.000000pt" height="256.000000pt" viewBox="0 0 256.000000 256.000000"
 preserveAspectRatio="xMidYMid meet">

<g transform="translate(0.000000,256.000000) scale(0.100000,-0.100000)"
fill="#000000" stroke="none">
<path d="M1440 2055 c-553 -216 -1098 -430 -1211 -474 -190 -75 -208 -84 -219
-112 -28 -67 -25 -69 335 -251 204 -103 342 -167 360 -168 22 0 106 44 290
151 261 151 304 176 295 167 -3 -3 -68 -60 -145 -128 -77 -67 -155 -138 -172
-156 l-33 -34 0 -392 c1 -424 0 -417 54 -438 21 -7 35 -7 54 2 15 7 85 89 157
185 72 95 135 177 142 184 9 9 92 -34 345 -178 184 -105 344 -193 355 -197 27
-9 79 17 87 41 11 34 426 2105 426 2124 0 32 -44 69 -82 68 -18 -1 -485 -178
-1038 -394z m927 163 c-3 -13 -85 -421 -182 -908 -97 -487 -178 -886 -179
-888 -2 -1 -149 81 -328 183 -179 102 -334 185 -344 185 -33 0 -61 -27 -141
-133 -42 -56 -80 -106 -84 -111 -5 -6 -9 90 -9 215 l0 225 451 399 c248 220
460 411 470 424 11 13 19 35 19 48 0 34 -42 73 -79 73 -21 0 -207 -103 -642
-356 l-612 -356 -213 103 c-117 57 -211 105 -209 107 6 6 2068 811 2079 812 4
0 6 -10 3 -22z"/>
</g>
</svg>
